<svg width="846" height="181" viewBox="0 0 846 181" fill="none" xmlns="http://www.w3.org/2000/svg">
<path opacity="0.4" d="M902.589 117.788C902.501 117.685 902.414 117.582 902.306 117.493C897.178 112.505 775.798 -5.17202 705.857 -30.1728C684.291 -37.876 668.743 -35.9005 659.615 -24.3342C643.592 -4.036 659.626 28.1339 699.266 88.2375C702.939 93.8137 706.112 98.6202 708.084 101.835C709.494 104.146 711.32 107.09 713.494 110.567C729.394 136.217 772.38 205.5 790.584 254.018C757.935 229.767 701.827 178.957 661.409 142.359C621.491 106.217 580.21 68.8215 548.421 43.1617C513.776 15.2198 337.145 -123.786 260.223 -115.78L259.613 -115.711C248.378 -114.177 239.664 -107.828 235.708 -98.3055C225.047 -72.6456 251.186 -33.8874 309.12 42.4398C321.121 58.2536 332.45 73.1801 340.607 85.0165C376.144 136.562 420.729 211.114 397.55 263.302C395.131 268.731 391.581 271.862 385.665 273.741C337.968 288.871 206.874 211.239 163.793 185.719C85.9825 139.633 5.10723 70.8097 -66.2442 10.1021L-81.3613 -2.7504C-81.9901 -3.27989 -82.6476 -3.74438 -83.3112 -4.17483C-85.5192 -5.73162 -88.083 -6.85985 -90.9325 -7.35473C-101.153 -9.1298 -110.861 -2.32238 -112.629 7.86022C-113.846 14.8639 -110.978 21.6313 -105.754 25.7608L-90.668 38.5904C-18.1696 100.285 64.0084 170.211 144.593 217.934C237.562 272.992 302.474 302.864 348.391 310.838C367.792 314.207 383.812 313.662 397.096 309.437C413.15 304.345 425.188 293.634 431.912 278.499C446.065 246.598 444.453 207.704 427.077 162.92C412.302 124.822 388.319 88.1191 371.568 63.8276C362.917 51.2926 351.331 36.0238 339.072 19.8677C319.574 -5.8116 281.539 -55.9346 272.782 -78.3824C316.908 -73.6609 419.245 -12.8257 524.727 72.3023C555.683 97.292 596.572 134.321 636.093 170.115C766.976 288.637 799.97 315.049 823.525 302.293C828.027 299.853 838.155 292.243 835.178 274.161C827.521 227.668 783.181 151.81 745.415 90.9286C743.298 87.5314 741.514 84.6473 740.147 82.396C737.848 78.6343 734.508 73.5712 730.656 67.7186C722.753 55.7338 701.941 24.1526 694.129 5.4763C756.638 28.5383 874.808 143.136 876.011 144.308C876.523 144.8 877.058 145.261 877.6 145.687C880.066 147.779 883.095 149.268 886.524 149.864C896.745 151.639 906.453 144.832 908.221 134.649C909.38 128.178 907.033 121.957 902.589 117.788Z" fill="#8EBDA7"/>
</svg>
