<svg width="854" height="189" viewBox="0 0 854 189" fill="none" xmlns="http://www.w3.org/2000/svg">
<path opacity="0.4" d="M906.589 117.788C906.501 117.685 906.414 117.582 906.306 117.493C901.178 112.505 779.798 -5.17202 709.857 -30.1728C688.291 -37.876 672.743 -35.9005 663.615 -24.3342C647.592 -4.036 663.626 28.1339 703.266 88.2375C706.939 93.8137 710.112 98.6202 712.084 101.835C713.494 104.146 715.32 107.09 717.494 110.567C733.394 136.217 776.38 205.5 794.584 254.018C761.935 229.767 705.827 178.957 665.409 142.359C625.491 106.217 584.21 68.8215 552.421 43.1617C517.776 15.2198 341.145 -123.786 264.223 -115.78L263.613 -115.711C252.378 -114.177 243.664 -107.828 239.708 -98.3055C229.047 -72.6456 255.186 -33.8874 313.12 42.4398C325.121 58.2536 336.45 73.1801 344.607 85.0165C380.144 136.562 424.729 211.114 401.55 263.302C399.131 268.731 395.581 271.862 389.665 273.741C341.968 288.871 210.874 211.239 167.793 185.719C89.9825 139.633 9.10723 70.8097 -62.2442 10.1021L-77.3613 -2.7504C-77.9901 -3.27989 -78.6476 -3.74438 -79.3112 -4.17483C-81.5192 -5.73162 -84.083 -6.85985 -86.9325 -7.35473C-97.1533 -9.1298 -106.861 -2.32238 -108.629 7.86022C-109.846 14.8639 -106.978 21.6313 -101.754 25.7608L-86.668 38.5904C-14.1696 100.285 68.0084 170.211 148.593 217.934C241.562 272.992 306.474 302.864 352.391 310.838C371.792 314.207 387.812 313.662 401.096 309.437C417.15 304.345 429.188 293.634 435.912 278.499C450.065 246.598 448.453 207.704 431.077 162.92C416.302 124.822 392.319 88.1191 375.568 63.8276C366.917 51.2926 355.331 36.0238 343.072 19.8677C323.574 -5.8116 285.539 -55.9346 276.782 -78.3824C320.908 -73.6609 423.245 -12.8257 528.727 72.3023C559.683 97.292 600.572 134.321 640.093 170.115C770.976 288.637 803.97 315.049 827.525 302.293C832.027 299.853 842.155 292.243 839.178 274.161C831.521 227.668 787.181 151.81 749.415 90.9286C747.298 87.5314 745.514 84.6473 744.147 82.396C741.848 78.6343 738.508 73.5712 734.656 67.7186C726.753 55.7338 705.941 24.1526 698.129 5.4763C760.638 28.5383 878.808 143.136 880.011 144.308C880.523 144.8 881.058 145.261 881.6 145.687C884.066 147.779 887.095 149.268 890.524 149.864C900.745 151.639 910.453 144.832 912.221 134.649C913.38 128.178 911.033 121.957 906.589 117.788Z" fill="#EF776E"/>
</svg>
