<svg width="294" height="262" viewBox="0 0 294 262" fill="none" xmlns="http://www.w3.org/2000/svg">
<path d="M157.781 138.529C157.676 138.529 157.605 138.529 157.5 138.529L156.024 138.425C148.889 137.87 148.468 137.836 139.47 138.044C138.522 138.113 137.537 137.663 136.835 136.97C136.167 136.243 135.815 135.307 135.886 134.303L142.071 58.4885C142.141 57.5534 142.598 56.6875 143.336 56.0987C144.074 55.5099 145.023 55.2328 145.937 55.3021C146.043 55.3021 154.161 56.0641 161.753 53.2933C150.752 32.1317 131.247 15.438 110.195 9.30768C95.9256 5.15156 82.8165 6.36376 72.3432 12.875C40.9937 32.3049 52.0293 68.1515 60.8507 96.9326C64.9979 110.405 68.5475 122.008 67.2823 130.286C67.0011 132.19 65.2087 133.472 63.2758 133.195C61.3779 132.918 60.0424 131.151 60.3236 129.246C61.3779 122.527 57.8634 111.098 54.138 98.9761C45.0706 69.5022 32.6995 29.2224 68.5827 6.98718C80.6375 -0.493841 96.1013 -2.01775 112.163 2.65789C136.132 9.61939 158.168 29.1185 169.66 53.5011C170.433 55.1636 169.766 57.1377 168.149 58.0036C161.19 61.6748 153.283 62.2983 148.819 62.2983L143.231 130.978C149.1 130.874 150.471 130.978 156.621 131.463L158.027 131.602C159.96 131.74 161.401 133.403 161.26 135.342C161.12 137.143 159.574 138.529 157.781 138.529Z" fill="white"/>
<path d="M131.211 92.2916C113.182 92.2916 100.635 84.9491 92.9734 78.2647C78.6693 65.7963 72.3081 48.4791 72.3432 36.8766C72.3432 34.9717 73.9247 33.4132 75.8577 33.4132C77.7907 33.4132 79.3722 34.9717 79.3722 36.8766C79.3371 46.6089 85.0306 62.0905 97.5774 73.0349C105.345 79.8232 118.875 87.3735 139.084 84.8452C141.017 84.6028 142.774 85.9535 143.02 87.8584C143.266 89.7633 141.895 91.495 139.962 91.7375C136.94 92.1184 133.988 92.2916 131.211 92.2916Z" fill="white"/>
<path d="M118.946 35.2488C122.109 35.2488 124.639 37.7771 124.639 40.8942C124.639 44.0113 122.074 46.505 118.946 46.505C115.783 46.505 113.252 43.9767 113.252 40.8942C113.217 37.7771 115.783 35.2488 118.946 35.2488Z" fill="white"/>
<path d="M81.2701 208.178C79.6183 208.178 78.1422 207.035 77.8259 205.373C77.4393 203.503 78.7045 201.667 80.6023 201.321C81.0944 201.217 128.646 191.935 161.401 174.895C163.123 173.994 165.232 174.652 166.146 176.349C167.059 178.046 166.392 180.124 164.67 181.025C130.965 198.55 83.906 207.728 81.9378 208.109C81.727 208.178 81.4809 208.178 81.2701 208.178Z" fill="white"/>
<path d="M137.081 220.162C135.569 220.162 134.164 219.192 133.707 217.703C133.144 215.867 134.199 213.928 136.061 213.373C148.924 209.564 159.327 204.715 159.433 204.68C161.19 203.849 163.299 204.611 164.107 206.308C164.951 208.04 164.213 210.118 162.455 210.914C162.034 211.122 151.49 216.04 138.1 219.989C137.748 220.127 137.432 220.162 137.081 220.162Z" fill="white"/>
<path d="M21.3827 256.216C20.8555 256.216 20.3284 256.112 19.8363 255.87C8.69532 250.467 1.94745 241.462 0.365917 229.79C-3.28918 202.81 20.6798 162.495 61.4482 127.134C62.8892 125.852 65.1385 125.991 66.4037 127.445C67.6689 128.866 67.5283 131.082 66.0874 132.329C27.6737 165.682 4.05616 204.472 7.3598 228.89C8.62503 238.275 13.8617 245.272 22.9643 249.67C24.7215 250.501 25.4244 252.579 24.5809 254.311C23.9483 255.489 22.6831 256.216 21.3827 256.216Z" fill="white"/>
<path d="M119.192 251.748C117.645 251.748 116.24 250.744 115.818 249.185C115.291 247.35 116.415 245.445 118.278 244.925C133.953 240.735 151.104 235.262 169.274 228.647C171.066 227.989 173.104 228.89 173.772 230.691C174.44 232.492 173.526 234.466 171.699 235.124C153.353 241.808 135.991 247.35 120.105 251.61C119.824 251.679 119.508 251.748 119.192 251.748Z" fill="white"/>
<path d="M258.226 199.45C257.804 199.45 257.382 199.381 256.961 199.208L239.669 192.662C237.842 191.969 236.963 189.961 237.666 188.194C238.369 186.393 240.407 185.527 242.2 186.22L259.491 192.766C261.319 193.459 262.197 195.467 261.494 197.234C260.967 198.619 259.632 199.45 258.226 199.45Z" fill="white"/>
<path d="M254.887 219.815C254.536 219.815 254.149 219.746 253.798 219.642L233.203 213.096C231.34 212.507 230.356 210.568 230.953 208.732C231.551 206.931 233.519 205.927 235.382 206.516L255.977 213.062C257.839 213.65 258.823 215.59 258.226 217.426C257.769 218.88 256.398 219.815 254.887 219.815Z" fill="white"/>
<path d="M262.162 242.501C252.884 242.501 241.427 240.215 227.65 234.639C225.857 233.912 224.979 231.903 225.717 230.136C226.455 228.37 228.528 227.539 230.286 228.232C262.654 241.289 279.735 235.089 284.971 224.907C291.438 212.265 282.406 189.302 252.919 171.57C251.267 170.565 250.74 168.453 251.759 166.825C252.778 165.197 254.922 164.677 256.574 165.682C290.032 185.77 299.346 212.265 291.262 228.058C287.115 236.128 277.661 242.501 262.162 242.501Z" fill="white"/>
<path d="M210.393 262C210.323 262 210.253 262 210.183 262L140.595 257.844C138.662 257.74 137.186 256.078 137.291 254.173C137.397 252.268 139.119 250.778 141.017 250.917L210.639 255.038C212.572 255.142 214.048 256.805 213.943 258.71C213.802 260.58 212.256 262 210.393 262Z" fill="white"/>
<path d="M210.393 262C210.147 262 209.937 261.965 209.69 261.931C207.793 261.55 206.563 259.714 206.949 257.844C207.301 256.181 210.323 241.531 211.483 238.172C221.886 208.247 238.264 96.517 238.404 95.4087C238.685 93.5038 240.443 92.2224 242.376 92.4648C244.308 92.7419 245.644 94.5082 245.363 96.3785C244.695 100.985 228.739 209.875 218.125 240.423C217.352 242.639 215.138 252.891 213.802 259.229C213.521 260.857 212.045 262 210.393 262Z" fill="white"/>
<path d="M152.474 184.558C152.052 184.558 151.596 184.488 151.174 184.315C149.381 183.622 148.503 181.579 149.206 179.813C153.775 168.522 157.254 109.54 158.238 87.7891C158.273 86.854 158.73 85.9535 159.433 85.3301C160.171 84.7067 161.085 84.395 162.069 84.4989L242.27 92.4648C244.203 92.6726 245.609 94.3697 245.398 96.2746C245.222 98.1795 243.535 99.5648 241.532 99.3917L165.091 91.7721C164.318 107.704 161.014 169.353 155.743 182.41C155.18 183.761 153.845 184.558 152.474 184.558Z" fill="white"/>
<path d="M259.561 173.059C259.245 173.059 258.929 173.024 258.613 172.92C256.75 172.401 255.66 170.496 256.188 168.626L277.134 96.136L242.27 99.3224C240.302 99.4956 238.615 98.1102 238.439 96.2053C238.264 94.3004 239.669 92.6033 241.602 92.4302L281.562 88.7935C282.722 88.6896 283.847 89.1399 284.585 90.0404C285.323 90.9062 285.569 92.1184 285.253 93.1921L262.9 170.531C262.479 172.089 261.073 173.059 259.561 173.059Z" fill="white"/>
<path d="M210.393 262C208.917 262 207.511 261.065 207.055 259.61C206.457 257.775 207.476 255.835 209.339 255.246L230.25 248.596L234.468 235.054C235.03 233.219 236.998 232.214 238.861 232.769C240.724 233.323 241.778 235.262 241.181 237.098L236.436 252.372C236.085 253.445 235.241 254.311 234.152 254.657L211.483 261.861C211.131 261.931 210.78 262 210.393 262Z" fill="white"/>
<path d="M140.806 257.844C140.525 257.844 140.209 257.809 139.927 257.74C138.065 257.255 136.94 255.35 137.397 253.515L140.56 241.462C141.052 239.592 142.985 238.518 144.848 238.968C146.71 239.453 147.835 241.358 147.378 243.194L144.215 255.246C143.793 256.839 142.352 257.844 140.806 257.844Z" fill="white"/>
</svg>
