<svg width="419" height="106" viewBox="0 0 419 106" fill="none" xmlns="http://www.w3.org/2000/svg">
<path fill-rule="evenodd" clip-rule="evenodd" d="M406.306 12.3377C408.164 12.3377 409.831 12.1989 409.831 9.9848C409.831 8.17387 408.181 7.8434 406.656 7.8434H403.697V12.3377H406.306ZM403.697 20.434H401.518V5.98951H407.024C410.433 5.98951 412.116 7.28162 412.116 10.1071C412.116 12.7144 410.489 13.8149 408.379 14.0693L412.463 20.434H410.039L406.207 14.1718H403.697V20.434ZM406.336 23.6296C411.987 23.6296 416.454 19.1948 416.454 13.1506C416.454 7.28162 411.987 2.80715 406.336 2.80715C400.632 2.80715 396.155 7.28162 396.155 13.1506C396.155 19.1948 400.632 23.6296 406.336 23.6296ZM393.625 13.1506C393.625 5.98951 399.451 0.735144 406.336 0.735144C413.194 0.735144 419 5.98951 419 13.1506C419 20.434 413.194 25.7181 406.336 25.7181C399.451 25.7181 393.625 20.434 393.625 13.1506Z" fill="#474747"/>
<path fill-rule="evenodd" clip-rule="evenodd" d="M89.6288 76.5315H76.2007V29.923L62.4617 75.897H49.0501L35.2914 29.923V76.5315H21.8699V17.7652H43.581L55.7493 64.0895L67.8846 17.7652H89.6288V76.5315ZM105.302 0.961205H72.8378C71.0589 0.961205 69.0816 2.29628 67.7027 4.12043C64.6639 8.10251 59.3337 14.5168 56.2552 14.6523C52.8131 14.8043 45.7105 6.60882 42.6486 2.83493C41.7227 1.68492 39.8545 0.961205 37.735 0.961205H5.84277C2.62544 0.961205 0 3.58839 0 6.79718V99.5945C0 102.803 2.62544 105.417 5.84277 105.417H35.341C38.555 105.417 41.1441 102.803 41.1441 99.5945V82.4468C41.1441 79.2347 43.0189 78.4812 45.2806 80.7482L51.4408 86.9113C53.7058 89.175 57.4357 89.175 59.6941 86.9113L65.8444 80.7482C68.1292 78.4812 69.9942 79.2347 69.9942 82.46V99.5945C69.9942 102.803 72.6064 105.417 75.8039 105.417H105.302C108.533 105.417 111.138 102.803 111.138 99.5945V6.79718C111.138 3.58839 108.533 0.961205 105.302 0.961205Z" fill="#474747"/>
<path fill-rule="evenodd" clip-rule="evenodd" d="M245.065 89.0218H207.373V86.0675H210.845C213.431 86.0675 217.21 85.1157 217.21 79.3921V22.8598C217.21 17.1329 213.431 16.1613 210.845 16.1613H207.373V13.2367H266.416V34.6772H263.374C262.812 18.7621 249.069 18.0979 240.727 18.0979H233.892V79.3921C233.892 85.1157 237.688 86.0675 240.307 86.0675H245.065V89.0218ZM190.242 39.1781L190.232 39.1748H174.092C170.875 39.1748 168.256 37.81 168.256 36.1477C168.256 34.4591 170.875 33.0943 174.092 33.0943H189.276C190.321 33.0943 191.29 32.7902 192.14 32.3111C191.263 34.5681 190.671 36.8384 190.242 39.1781ZM287.595 56.3522L287.695 52.0893C287.757 48.8375 285.171 46.25 281.96 46.25H252.637C249.426 46.25 246.851 48.8375 246.904 52.0893L247.142 65.2748C246.88 71.8047 244.724 74.2799 243.382 74.3129C242.043 74.3427 240.353 71.3553 239.411 69.6501C235.902 63.3283 237.619 47.7833 237.619 42.6876C237.619 37.582 242.092 37.582 245.617 36.9508C249.129 36.2998 278.124 36.8318 278.124 36.8318C281.345 36.8847 283.987 34.3137 283.987 31.1181V7.00091C283.987 3.76568 281.368 0.953437 278.174 0.695676C278.174 0.695676 259.34 -0.76497 243.713 1.16493C228.046 3.07501 215.567 3.69297 202.79 16.8091C199.447 20.2393 196.974 23.372 195.112 26.3958V7.00091C195.112 3.76568 192.5 1.16493 189.276 1.16493H122.972C119.741 1.16493 117.119 3.76568 117.119 7.00091V99.8081C117.119 102.99 119.741 105.611 122.972 105.611H150.867C148.906 105.39 146.938 105.062 144.971 104.511C128.358 99.8676 117.979 86.6954 117.837 70.1028C117.718 54.5017 127.257 40.7247 141.026 36.6302C163.329 30.021 178.03 42.2117 182.643 49.6009L186.694 56.0416L151.723 82.016L141.919 68.8074C141.919 68.8074 154.385 59.5214 162.754 53.2889C159.017 51.359 153.429 50.1462 145.702 52.39C137.802 54.7363 134.257 63.1631 134.324 69.9805C134.347 73.3876 135.504 84.7787 149.408 88.6616C155.228 90.2941 160.525 89.3952 165.187 86.0113C170.164 82.3993 172.968 76.7154 173.09 74.0585L173.841 74.0816C171.543 73.5462 169.87 72.0691 169.87 70.311C169.87 68.1399 172.472 66.3256 175.683 66.3256H190.232C190.486 66.3256 190.728 66.2827 190.979 66.2463C191.782 69.0321 192.831 71.9005 194.057 74.759C193.366 74.4715 192.616 74.3129 191.819 74.3129H179.528L189.514 74.7062C189.19 83.2883 183.288 93.1989 174.869 99.3124C169.979 102.862 164.48 104.94 158.726 105.611H191.819C195.046 105.611 197.675 102.99 197.675 99.8081V82.0623C202.641 90.8592 209.304 98.4103 216.549 100.806C231.895 105.925 237.308 105.611 242.757 105.611C246.758 105.611 265.47 105.469 275.029 105.393C274.239 104.345 273.985 102.891 274.467 101.302L287.595 56.3522Z" fill="#474747"/>
<path fill-rule="evenodd" clip-rule="evenodd" d="M363.811 79.1369C358.044 86.2749 352.562 89.7646 347.119 89.7646C345.208 89.7646 338.972 89.0343 338.972 79.9499C338.972 78.4958 339.107 76.5593 339.474 74.1403C339.474 74.1403 339.534 73.3737 339.666 72.3823C336.994 75.6935 334.174 78.6379 331.238 81.1858C324.707 86.9557 318.987 89.7646 313.749 89.7646C309.182 89.7646 301.478 87.4415 301.478 71.956C301.478 57.9906 306.107 45.7139 315.257 35.4861C324.509 25.1459 335.655 19.8948 348.442 19.8948C353.273 19.8948 357.512 20.5161 361.043 21.7752L364.006 22.8723L363.179 25.906C363.179 25.906 362.822 27.2675 362.839 27.1617C362.839 27.1617 362.062 30.6349 362.062 30.5919C362.062 30.5919 361.268 34.4286 361.268 34.5244L357.158 63.2119L356.573 67.3559C356.163 70.4656 355.971 72.3195 355.842 73.562C357.247 72.3823 359.278 69.9269 361.896 64.3355L363.523 60.8855L366.77 62.8484C369.002 64.1901 370.16 65.8589 370.16 67.8549C370.16 69.656 369.383 72.2798 363.811 79.1369ZM396.123 100.343L368.711 6.50448C367.812 3.43118 364.462 0.926269 361.268 0.926269H312.066C308.872 0.926269 305.509 3.43118 304.626 6.50448L277.204 100.343C276.279 103.419 278.167 105.937 281.397 105.937H313.984C317.198 105.937 320.332 104.183 320.974 102.064C321.569 99.9231 324.707 98.1749 327.908 98.1749H345.403C348.6 98.1749 351.758 99.9231 352.347 102.064C352.995 104.183 356.126 105.937 359.327 105.937H391.947C395.157 105.937 397.016 103.419 396.123 100.343Z" fill="#474747"/>
<path fill-rule="evenodd" clip-rule="evenodd" d="M324.694 42.54C320.898 49.3971 318.954 58.0453 318.954 68.3128C318.954 69.8032 319.129 73.3193 320.515 73.3193C322.098 73.3193 325.703 72.3213 331.889 65.6195C338.694 58.2733 342.9 49.5226 344.352 39.6286C344.352 39.6286 344.696 37.1567 345.007 35.0913C342.279 33.8851 339.557 33.254 336.872 33.254C332.114 33.254 328.13 36.2975 324.694 42.54Z" fill="#474747"/>
</svg>
